# Blender 4.5.0
# www.blender.org
mtllib Face_Center.mtl
o Plane
v 0.000000 -0.220000 -0.010000
v -0.220000 0.000000 -0.010000
v -0.017261 -0.219322 -0.010000
v -0.034416 -0.217291 -0.010000
v -0.051358 -0.213921 -0.010000
v -0.067984 -0.209232 -0.010000
v -0.084190 -0.203253 -0.010000
v -0.099878 -0.196021 -0.010000
v -0.114950 -0.187581 -0.010000
v -0.129313 -0.177984 -0.010000
v -0.142879 -0.167289 -0.010000
v -0.155563 -0.155563 -0.010000
v -0.167289 -0.142879 -0.010000
v -0.177984 -0.129313 -0.010000
v -0.187581 -0.114950 -0.010000
v -0.196021 -0.099878 -0.010000
v -0.203253 -0.084190 -0.010000
v -0.209232 -0.067984 -0.010000
v -0.213921 -0.051358 -0.010000
v -0.217291 -0.034416 -0.010000
v -0.219322 -0.017261 -0.010000
v 0.220000 0.000000 -0.010000
v 0.000000 -0.220000 -0.010000
v 0.219322 -0.017261 -0.010000
v 0.217291 -0.034416 -0.010000
v 0.213921 -0.051358 -0.010000
v 0.209232 -0.067984 -0.010000
v 0.203253 -0.084190 -0.010000
v 0.196021 -0.099878 -0.010000
v 0.187581 -0.114950 -0.010000
v 0.177984 -0.129313 -0.010000
v 0.167289 -0.142879 -0.010000
v 0.155563 -0.155563 -0.010000
v 0.142879 -0.167289 -0.010000
v 0.129313 -0.177984 -0.010000
v 0.114950 -0.187581 -0.010000
v 0.099878 -0.196021 -0.010000
v 0.084190 -0.203253 -0.010000
v 0.067984 -0.209232 -0.010000
v 0.051358 -0.213921 -0.010000
v 0.034416 -0.217291 -0.010000
v 0.017261 -0.219322 -0.010000
v -0.220000 -0.000000 -0.010000
v 0.000000 0.220000 -0.010000
v -0.219322 0.017261 -0.010000
v -0.217291 0.034416 -0.010000
v -0.213921 0.051358 -0.010000
v -0.209232 0.067984 -0.010000
v -0.203253 0.084190 -0.010000
v -0.196021 0.099878 -0.010000
v -0.187581 0.114950 -0.010000
v -0.177984 0.129313 -0.010000
v -0.167289 0.142879 -0.010000
v -0.155563 0.155563 -0.010000
v -0.142879 0.167289 -0.010000
v -0.129313 0.177984 -0.010000
v -0.114950 0.187581 -0.010000
v -0.099878 0.196021 -0.010000
v -0.084190 0.203253 -0.010000
v -0.067984 0.209232 -0.010000
v -0.051358 0.213921 -0.010000
v -0.034416 0.217291 -0.010000
v -0.017261 0.219322 -0.010000
v -0.000000 0.220000 -0.010000
v 0.220000 0.000000 -0.010000
v 0.017261 0.219322 -0.010000
v 0.034416 0.217291 -0.010000
v 0.051358 0.213921 -0.010000
v 0.067984 0.209232 -0.010000
v 0.084190 0.203253 -0.010000
v 0.099878 0.196021 -0.010000
v 0.114950 0.187581 -0.010000
v 0.129313 0.177984 -0.010000
v 0.142879 0.167289 -0.010000
v 0.155563 0.155563 -0.010000
v 0.167289 0.142879 -0.010000
v 0.177984 0.129313 -0.010000
v 0.187581 0.114950 -0.010000
v 0.196021 0.099878 -0.010000
v 0.203253 0.084190 -0.010000
v 0.209232 0.067984 -0.010000
v 0.213921 0.051358 -0.010000
v 0.217291 0.034416 -0.010000
v 0.219322 0.017261 -0.010000
v -0.220000 0.000000 0.010000
v 0.000000 -0.220000 0.010000
v -0.219322 -0.017261 0.010000
v -0.217291 -0.034416 0.010000
v -0.213921 -0.051358 0.010000
v -0.209232 -0.067984 0.010000
v -0.203253 -0.084190 0.010000
v -0.196021 -0.099878 0.010000
v -0.187581 -0.114950 0.010000
v -0.177984 -0.129313 0.010000
v -0.167289 -0.142879 0.010000
v -0.155563 -0.155563 0.010000
v -0.142879 -0.167289 0.010000
v -0.129313 -0.177984 0.010000
v -0.114950 -0.187581 0.010000
v -0.099878 -0.196021 0.010000
v -0.084190 -0.203253 0.010000
v -0.067984 -0.209232 0.010000
v -0.051358 -0.213921 0.010000
v -0.034416 -0.217291 0.010000
v -0.017261 -0.219322 0.010000
v -0.000000 -0.220000 0.010000
v 0.220000 -0.000000 0.010000
v 0.017261 -0.219322 0.010000
v 0.034416 -0.217291 0.010000
v 0.051358 -0.213921 0.010000
v 0.067984 -0.209232 0.010000
v 0.084190 -0.203253 0.010000
v 0.099878 -0.196021 0.010000
v 0.114950 -0.187581 0.010000
v 0.129313 -0.177984 0.010000
v 0.142879 -0.167289 0.010000
v 0.155563 -0.155563 0.010000
v 0.167289 -0.142879 0.010000
v 0.177984 -0.129313 0.010000
v 0.187581 -0.114950 0.010000
v 0.196021 -0.099878 0.010000
v 0.203253 -0.084190 0.010000
v 0.209232 -0.067984 0.010000
v 0.213921 -0.051358 0.010000
v 0.217291 -0.034416 0.010000
v 0.219322 -0.017261 0.010000
v 0.000000 0.220000 0.010000
v -0.220000 -0.000000 0.010000
v -0.017261 0.219322 0.010000
v -0.034416 0.217291 0.010000
v -0.051358 0.213921 0.010000
v -0.067984 0.209232 0.010000
v -0.084190 0.203253 0.010000
v -0.099878 0.196021 0.010000
v -0.114950 0.187581 0.010000
v -0.129313 0.177984 0.010000
v -0.142879 0.167289 0.010000
v -0.155563 0.155563 0.010000
v -0.167289 0.142879 0.010000
v -0.177984 0.129313 0.010000
v -0.187581 0.114950 0.010000
v -0.196021 0.099878 0.010000
v -0.203253 0.084190 0.010000
v -0.209232 0.067984 0.010000
v -0.213921 0.051358 0.010000
v -0.217291 0.034416 0.010000
v -0.219322 0.017261 0.010000
v 0.220000 -0.000000 0.010000
v 0.000000 0.220000 0.010000
v 0.219322 0.017261 0.010000
v 0.217291 0.034416 0.010000
v 0.213921 0.051358 0.010000
v 0.209232 0.067984 0.010000
v 0.203253 0.084190 0.010000
v 0.196021 0.099878 0.010000
v 0.187581 0.114950 0.010000
v 0.177984 0.129313 0.010000
v 0.167289 0.142879 0.010000
v 0.155563 0.155563 0.010000
v 0.142879 0.167289 0.010000
v 0.129313 0.177984 0.010000
v 0.114950 0.187581 0.010000
v 0.099878 0.196021 0.010000
v 0.084190 0.203253 0.010000
v 0.067984 0.209232 0.010000
v 0.051358 0.213921 0.010000
v 0.034416 0.217291 0.010000
v 0.017261 0.219322 0.010000
vn 0.0393 0.9992 -0.0000
vn 0.1175 0.9931 -0.0000
vn 0.1951 0.9808 -0.0000
vn 0.2714 0.9625 -0.0000
vn 0.3461 0.9382 -0.0000
vn 0.4187 0.9081 -0.0000
vn 0.4886 0.8725 -0.0000
vn 0.5556 0.8315 -0.0000
vn 0.6191 0.7853 -0.0000
vn 0.6788 0.7343 -0.0000
vn 0.7343 0.6788 -0.0000
vn 0.7853 0.6191 -0.0000
vn 0.8315 0.5556 -0.0000
vn 0.8725 0.4886 -0.0000
vn 0.9081 0.4187 -0.0000
vn 0.9382 0.3461 -0.0000
vn 0.9625 0.2714 -0.0000
vn 0.9808 0.1951 -0.0000
vn 0.9931 0.1175 -0.0000
vn 0.9992 0.0393 -0.0000
vn 0.0393 -0.9992 -0.0000
vn 0.1175 -0.9931 -0.0000
vn 0.1951 -0.9808 -0.0000
vn 0.2714 -0.9625 -0.0000
vn 0.3461 -0.9382 -0.0000
vn 0.4187 -0.9081 -0.0000
vn 0.4886 -0.8725 -0.0000
vn 0.5556 -0.8315 -0.0000
vn 0.6191 -0.7853 -0.0000
vn 0.6788 -0.7343 -0.0000
vn 0.7343 -0.6788 -0.0000
vn 0.7853 -0.6191 -0.0000
vn 0.8315 -0.5556 -0.0000
vn 0.8725 -0.4886 -0.0000
vn 0.9081 -0.4187 -0.0000
vn 0.9382 -0.3461 -0.0000
vn 0.9625 -0.2714 -0.0000
vn 0.9808 -0.1951 -0.0000
vn 0.9931 -0.1175 -0.0000
vn 0.9992 -0.0393 -0.0000
vn -0.0393 -0.9992 -0.0000
vn -0.1175 -0.9931 -0.0000
vn -0.1951 -0.9808 -0.0000
vn -0.2714 -0.9625 -0.0000
vn -0.3461 -0.9382 -0.0000
vn -0.4187 -0.9081 -0.0000
vn -0.4886 -0.8725 -0.0000
vn -0.5556 -0.8315 -0.0000
vn -0.6191 -0.7853 -0.0000
vn -0.6788 -0.7343 -0.0000
vn -0.7343 -0.6788 -0.0000
vn -0.7853 -0.6191 -0.0000
vn -0.8315 -0.5556 -0.0000
vn -0.8725 -0.4886 -0.0000
vn -0.9081 -0.4187 -0.0000
vn -0.9382 -0.3461 -0.0000
vn -0.9625 -0.2714 -0.0000
vn -0.9808 -0.1951 -0.0000
vn -0.9931 -0.1175 -0.0000
vn -0.9992 -0.0393 -0.0000
vn -0.0393 0.9992 -0.0000
vn -0.1175 0.9931 -0.0000
vn -0.1951 0.9808 -0.0000
vn -0.2714 0.9625 -0.0000
vn -0.3461 0.9382 -0.0000
vn -0.4187 0.9081 -0.0000
vn -0.4886 0.8725 -0.0000
vn -0.5556 0.8315 -0.0000
vn -0.6191 0.7853 -0.0000
vn -0.6788 0.7343 -0.0000
vn -0.7343 0.6788 -0.0000
vn -0.7853 0.6191 -0.0000
vn -0.8315 0.5556 -0.0000
vn -0.8725 0.4886 -0.0000
vn -0.9081 0.4187 -0.0000
vn -0.9382 0.3461 -0.0000
vn -0.9625 0.2714 -0.0000
vn -0.9808 0.1951 -0.0000
vn -0.9931 0.1175 -0.0000
vn -0.9992 0.0393 -0.0000
vn 1.0000 -0.0000 -0.0000
vn -0.0000 -0.0000 -1.0000
vn -0.0000 1.0000 -0.0000
vn -1.0000 -0.0000 -0.0000
vn -0.0000 -1.0000 -0.0000
vn -0.0000 -0.0000 1.0000
vt 0.500000 1.000000
vt 0.500000 1.000000
vt 0.539230 0.998466
vt 0.539230 0.998466
vt 0.578217 0.993872
vt 0.578217 0.993872
vt 0.616723 0.986248
vt 0.616723 0.986248
vt 0.654509 0.975639
vt 0.691342 0.962112
vt 0.691342 0.962112
vt 0.726995 0.945750
vt 0.726995 0.945750
vt 0.761249 0.926654
vt 0.761249 0.926654
vt 0.793893 0.904941
vt 0.793893 0.904941
vt 0.824724 0.880745
vt 0.824724 0.880746
vt 0.854217 0.854217
vt 0.880746 0.824724
vt 0.880745 0.824724
vt 0.904941 0.793893
vt 0.904941 0.793893
vt 0.926654 0.761249
vt 0.926654 0.761249
vt 0.945750 0.726995
vt 0.945750 0.726995
vt 0.962112 0.691342
vt 0.962112 0.691342
vt 0.975639 0.654509
vt 0.986248 0.616723
vt 0.986248 0.616723
vt 0.993872 0.578217
vt 0.993872 0.578217
vt 0.998466 0.539230
vt 0.998466 0.539230
vt 1.000000 0.500000
vt 1.000000 0.500000
vt 0.500000 0.000000
vt 0.500000 0.000000
vt 0.539230 0.001534
vt 0.539230 0.001534
vt 0.578217 0.006128
vt 0.578217 0.006128
vt 0.616723 0.013752
vt 0.616723 0.013752
vt 0.654509 0.024361
vt 0.654509 0.024361
vt 0.691342 0.037888
vt 0.691342 0.037888
vt 0.726995 0.054250
vt 0.726995 0.054250
vt 0.761249 0.073346
vt 0.761249 0.073346
vt 0.793893 0.095059
vt 0.793893 0.095059
vt 0.824724 0.119255
vt 0.824724 0.119255
vt 0.854217 0.145783
vt 0.854217 0.145783
vt 0.880746 0.175276
vt 0.880746 0.175276
vt 0.904941 0.206107
vt 0.904941 0.206107
vt 0.926654 0.238751
vt 0.926654 0.238751
vt 0.945750 0.273005
vt 0.945750 0.273005
vt 0.962112 0.308658
vt 0.962112 0.308658
vt 0.975639 0.345492
vt 0.975639 0.345491
vt 0.986248 0.383277
vt 0.986248 0.383277
vt 0.993872 0.421783
vt 0.993872 0.421783
vt 0.998466 0.460770
vt 0.998466 0.460770
vt 1.000000 0.500000
vt 0.500000 0.000000
vt 0.460770 0.001534
vt 0.460770 0.001534
vt 0.421783 0.006128
vt 0.383277 0.013752
vt 0.383277 0.013752
vt 0.345491 0.024361
vt 0.345492 0.024361
vt 0.308658 0.037888
vt 0.308658 0.037888
vt 0.273005 0.054250
vt 0.273005 0.054250
vt 0.238751 0.073346
vt 0.238751 0.073346
vt 0.206107 0.095059
vt 0.206107 0.095059
vt 0.175276 0.119255
vt 0.175276 0.119255
vt 0.145783 0.145783
vt 0.145783 0.145783
vt 0.119255 0.175276
vt 0.119255 0.175276
vt 0.095059 0.206107
vt 0.095059 0.206107
vt 0.073346 0.238751
vt 0.073346 0.238751
vt 0.054250 0.273005
vt 0.054250 0.273005
vt 0.037888 0.308658
vt 0.037888 0.308658
vt 0.024361 0.345492
vt 0.024361 0.345491
vt 0.013752 0.383277
vt 0.013752 0.383277
vt 0.006128 0.421783
vt 0.006128 0.421783
vt 0.001534 0.460770
vt 0.001534 0.460770
vt 0.000000 0.500000
vt 0.000000 0.500000
vt 0.500000 1.000000
vt 0.460770 0.998466
vt 0.460770 0.998466
vt 0.421783 0.993872
vt 0.421783 0.993872
vt 0.383277 0.986248
vt 0.345491 0.975639
vt 0.345492 0.975639
vt 0.308658 0.962112
vt 0.308658 0.962112
vt 0.273005 0.945750
vt 0.273005 0.945750
vt 0.238751 0.926654
vt 0.238751 0.926654
vt 0.206107 0.904941
vt 0.206107 0.904941
vt 0.175276 0.880746
vt 0.175276 0.880746
vt 0.145783 0.854217
vt 0.145783 0.854217
vt 0.119255 0.824724
vt 0.119255 0.824724
vt 0.095059 0.793893
vt 0.095059 0.793893
vt 0.073346 0.761249
vt 0.073346 0.761249
vt 0.054250 0.726995
vt 0.054250 0.726995
vt 0.037888 0.691342
vt 0.037888 0.691342
vt 0.024361 0.654509
vt 0.024361 0.654509
vt 0.013752 0.616723
vt 0.006128 0.578217
vt 0.006128 0.578217
vt 0.001534 0.539230
vt 0.001534 0.539230
vt 0.000000 0.500000
s 0
f 64/1/1 149/2/1 168/3/1 66/4/1
f 66/4/2 168/3/2 167/5/2 67/6/2
f 67/6/3 167/5/3 166/7/3 68/8/3
f 68/8/4 166/7/4 165/9/4 69/9/4
f 69/9/5 165/9/5 164/10/5 70/11/5
f 70/11/6 164/10/6 163/12/6 71/13/6
f 71/13/7 163/12/7 162/14/7 72/15/7
f 72/15/8 162/14/8 161/16/8 73/17/8
f 73/17/9 161/16/9 160/18/9 74/19/9
f 74/19/10 160/18/10 159/20/10 75/20/10
f 75/20/11 159/20/11 158/21/11 76/22/11
f 76/22/12 158/21/12 157/23/12 77/24/12
f 77/24/13 157/23/13 156/25/13 78/26/13
f 78/26/14 156/25/14 155/27/14 79/28/14
f 79/28/15 155/27/15 154/29/15 80/30/15
f 80/30/16 154/29/16 153/31/16 81/31/16
f 81/31/17 153/31/17 152/32/17 82/33/17
f 82/33/18 152/32/18 151/34/18 83/35/18
f 83/35/19 151/34/19 150/36/19 84/37/19
f 84/37/20 150/36/20 148/38/20 65/39/20
f 106/40/21 23/41/21 42/42/21 108/43/21
f 108/43/22 42/42/22 41/44/22 109/45/22
f 109/45/23 41/44/23 40/46/23 110/47/23
f 110/47/24 40/46/24 39/48/24 111/49/24
f 111/49/25 39/48/25 38/50/25 112/51/25
f 112/51/26 38/50/26 37/52/26 113/53/26
f 113/53/27 37/52/27 36/54/27 114/55/27
f 114/55/28 36/54/28 35/56/28 115/57/28
f 115/57/29 35/56/29 34/58/29 116/59/29
f 116/59/30 34/58/30 33/60/30 117/61/30
f 117/61/31 33/60/31 32/62/31 118/63/31
f 118/63/32 32/62/32 31/64/32 119/65/32
f 119/65/33 31/64/33 30/66/33 120/67/33
f 120/67/34 30/66/34 29/68/34 121/69/34
f 121/69/35 29/68/35 28/70/35 122/71/35
f 122/71/36 28/70/36 27/72/36 123/73/36
f 123/73/37 27/72/37 26/74/37 124/75/37
f 124/75/38 26/74/38 25/76/38 125/77/38
f 125/77/39 25/76/39 24/78/39 126/79/39
f 126/79/40 24/78/40 22/39/40 107/80/40
f 1/41/41 86/81/41 105/82/41 3/83/41
f 3/83/42 105/82/42 104/84/42 4/84/42
f 4/84/43 104/84/43 103/85/43 5/86/43
f 5/86/44 103/85/44 102/87/44 6/88/44
f 6/88/45 102/87/45 101/89/45 7/90/45
f 7/90/46 101/89/46 100/91/46 8/92/46
f 8/92/47 100/91/47 99/93/47 9/94/47
f 9/94/48 99/93/48 98/95/48 10/96/48
f 10/96/49 98/95/49 97/97/49 11/98/49
f 11/98/50 97/97/50 96/99/50 12/100/50
f 12/100/51 96/99/51 95/101/51 13/102/51
f 13/102/52 95/101/52 94/103/52 14/104/52
f 14/104/53 94/103/53 93/105/53 15/106/53
f 15/106/54 93/105/54 92/107/54 16/108/54
f 16/108/55 92/107/55 91/109/55 17/110/55
f 17/110/56 91/109/56 90/111/56 18/112/56
f 18/112/57 90/111/57 89/113/57 19/114/57
f 19/114/58 89/113/58 88/115/58 20/116/58
f 20/116/59 88/115/59 87/117/59 21/118/59
f 21/118/60 87/117/60 85/119/60 2/120/60
f 127/2/61 44/121/61 63/122/61 129/123/61
f 129/123/62 63/122/62 62/124/62 130/125/62
f 130/125/63 62/124/63 61/126/63 131/126/63
f 131/126/64 61/126/64 60/127/64 132/128/64
f 132/128/65 60/127/65 59/129/65 133/130/65
f 133/130/66 59/129/66 58/131/66 134/132/66
f 134/132/67 58/131/67 57/133/67 135/134/67
f 135/134/68 57/133/68 56/135/68 136/136/68
f 136/136/69 56/135/69 55/137/69 137/138/69
f 137/138/70 55/137/70 54/139/70 138/140/70
f 138/140/71 54/139/71 53/141/71 139/142/71
f 139/142/72 53/141/72 52/143/72 140/144/72
f 140/144/73 52/143/73 51/145/73 141/146/73
f 141/146/74 51/145/74 50/147/74 142/148/74
f 142/148/75 50/147/75 49/149/75 143/150/75
f 143/150/76 49/149/76 48/151/76 144/152/76
f 144/152/77 48/151/77 47/153/77 145/153/77
f 145/153/78 47/153/78 46/154/78 146/155/78
f 146/155/79 46/154/79 45/156/79 147/157/79
f 147/157/80 45/156/80 43/158/80 128/119/80
f 43/158/81 2/120/81 85/119/81 128/119/81
f 1/41/82 3/83/82 4/84/82 5/86/82 6/88/82 7/90/82 8/92/82 9/94/82 10/96/82 11/98/82 12/100/82 13/102/82 14/104/82 15/106/82 16/108/82 17/110/82 18/112/82 19/114/82 20/116/82 21/118/82 2/120/82 43/158/82 45/156/82 46/154/82 47/153/82 48/151/82 49/149/82 50/147/82 51/145/82 52/143/82 53/141/82 54/139/82 55/137/82 56/135/82 57/133/82 58/131/82 59/129/82 60/127/82 61/126/82 62/124/82 63/122/82 44/121/82 64/1/82 66/4/82 67/6/82 68/8/82 69/9/82 70/11/82 71/13/82 72/15/82 73/17/82 74/19/82 75/20/82 76/22/82 77/24/82 78/26/82 79/28/82 80/30/82 81/31/82 82/33/82 83/35/82 84/37/82 65/39/82 22/39/82 24/78/82 25/76/82 26/74/82 27/72/82 28/70/82 29/68/82 30/66/82 31/64/82 32/62/82 33/60/82 34/58/82 35/56/82 36/54/82 37/52/82 38/50/82 39/48/82 40/46/82 41/44/82 42/42/82 23/41/82
f 1/41/83 23/41/83 106/40/83 86/81/83
f 22/39/84 65/39/84 148/38/84 107/80/84
f 64/1/85 44/121/85 127/2/85 149/2/85
f 85/119/86 87/117/86 88/115/86 89/113/86 90/111/86 91/109/86 92/107/86 93/105/86 94/103/86 95/101/86 96/99/86 97/97/86 98/95/86 99/93/86 100/91/86 101/89/86 102/87/86 103/85/86 104/84/86 105/82/86 86/81/86 106/40/86 108/43/86 109/45/86 110/47/86 111/49/86 112/51/86 113/53/86 114/55/86 115/57/86 116/59/86 117/61/86 118/63/86 119/65/86 120/67/86 121/69/86 122/71/86 123/73/86 124/75/86 125/77/86 126/79/86 107/80/86 148/38/86 150/36/86 151/34/86 152/32/86 153/31/86 154/29/86 155/27/86 156/25/86 157/23/86 158/21/86 159/20/86 160/18/86 161/16/86 162/14/86 163/12/86 164/10/86 165/9/86 166/7/86 167/5/86 168/3/86 149/2/86 127/2/86 129/123/86 130/125/86 131/126/86 132/128/86 133/130/86 134/132/86 135/134/86 136/136/86 137/138/86 138/140/86 139/142/86 140/144/86 141/146/86 142/148/86 143/150/86 144/152/86 145/153/86 146/155/86 147/157/86 128/119/86
