# Blender 4.5.0
# www.blender.org
mtllib Face_Cross.mtl
o Plane
v 0.000000 -0.220000 0.010000
v 0.220000 0.000000 0.010000
v 0.017261 -0.219322 0.010000
v 0.034416 -0.217291 0.010000
v 0.051358 -0.213921 0.010000
v 0.067984 -0.209232 0.010000
v 0.084190 -0.203253 0.010000
v 0.099878 -0.196021 0.010000
v 0.114950 -0.187581 0.010000
v 0.129313 -0.177984 0.010000
v 0.142879 -0.167289 0.010000
v 0.155563 -0.155563 0.010000
v 0.167289 -0.142879 0.010000
v 0.177984 -0.129313 0.010000
v 0.187581 -0.114950 0.010000
v 0.196021 -0.099878 0.010000
v 0.203253 -0.084190 0.010000
v 0.209232 -0.067984 0.010000
v 0.213921 -0.051358 0.010000
v 0.217291 -0.034416 0.010000
v 0.219322 -0.017261 0.010000
v -0.220000 0.000000 0.010000
v 0.000000 -0.220000 0.010000
v -0.219322 -0.017261 0.010000
v -0.217291 -0.034416 0.010000
v -0.213921 -0.051358 0.010000
v -0.209232 -0.067984 0.010000
v -0.203253 -0.084190 0.010000
v -0.196021 -0.099878 0.010000
v -0.187581 -0.114950 0.010000
v -0.177984 -0.129313 0.010000
v -0.167289 -0.142879 0.010000
v -0.155563 -0.155563 0.010000
v -0.142879 -0.167289 0.010000
v -0.129313 -0.177984 0.010000
v -0.114950 -0.187581 0.010000
v -0.099878 -0.196021 0.010000
v -0.084190 -0.203253 0.010000
v -0.067984 -0.209232 0.010000
v -0.051358 -0.213921 0.010000
v -0.034416 -0.217291 0.010000
v -0.017261 -0.219322 0.010000
v 0.220000 -0.000000 -0.010000
v -0.000000 -0.220000 -0.010000
v 0.219322 -0.017261 -0.010000
v 0.217291 -0.034416 -0.010000
v 0.213921 -0.051358 -0.010000
v 0.209232 -0.067984 -0.010000
v 0.203253 -0.084190 -0.010000
v 0.196021 -0.099878 -0.010000
v 0.187581 -0.114950 -0.010000
v 0.177984 -0.129313 -0.010000
v 0.167289 -0.142879 -0.010000
v 0.155563 -0.155563 -0.010000
v 0.142879 -0.167289 -0.010000
v 0.129313 -0.177984 -0.010000
v 0.114950 -0.187581 -0.010000
v 0.099878 -0.196021 -0.010000
v 0.084190 -0.203253 -0.010000
v 0.067984 -0.209232 -0.010000
v 0.051358 -0.213921 -0.010000
v 0.034416 -0.217291 -0.010000
v 0.017261 -0.219322 -0.010000
v -0.000000 -0.220000 -0.010000
v -0.220000 -0.000000 -0.010000
v -0.017261 -0.219322 -0.010000
v -0.034416 -0.217291 -0.010000
v -0.051358 -0.213921 -0.010000
v -0.067984 -0.209232 -0.010000
v -0.084190 -0.203253 -0.010000
v -0.099878 -0.196021 -0.010000
v -0.114950 -0.187581 -0.010000
v -0.129313 -0.177984 -0.010000
v -0.142879 -0.167289 -0.010000
v -0.155563 -0.155563 -0.010000
v -0.167289 -0.142879 -0.010000
v -0.177984 -0.129313 -0.010000
v -0.187581 -0.114950 -0.010000
v -0.196021 -0.099878 -0.010000
v -0.203253 -0.084190 -0.010000
v -0.209232 -0.067984 -0.010000
v -0.213921 -0.051358 -0.010000
v -0.217291 -0.034416 -0.010000
v -0.219322 -0.017261 -0.010000
v 0.220000 0.110000 0.010000
v 0.110000 0.220000 0.010000
v 0.219059 0.124358 0.010000
v 0.216252 0.138470 0.010000
v 0.211627 0.152095 0.010000
v 0.205263 0.165000 0.010000
v 0.197269 0.176964 0.010000
v 0.187782 0.187782 0.010000
v 0.176964 0.197269 0.010000
v 0.165000 0.205263 0.010000
v 0.152095 0.211627 0.010000
v 0.138470 0.216252 0.010000
v 0.124358 0.219059 0.010000
v -0.110000 0.220000 0.010000
v -0.220000 0.110000 0.010000
v -0.124358 0.219059 0.010000
v -0.138470 0.216252 0.010000
v -0.152095 0.211627 0.010000
v -0.165000 0.205263 0.010000
v -0.176964 0.197269 0.010000
v -0.187782 0.187782 0.010000
v -0.197269 0.176964 0.010000
v -0.205263 0.165000 0.010000
v -0.211627 0.152095 0.010000
v -0.216252 0.138470 0.010000
v -0.219059 0.124358 0.010000
v 0.110000 0.220000 -0.010000
v 0.220000 0.110000 -0.010000
v 0.124358 0.219059 -0.010000
v 0.138470 0.216252 -0.010000
v 0.152095 0.211627 -0.010000
v 0.165000 0.205263 -0.010000
v 0.176964 0.197269 -0.010000
v 0.187782 0.187782 -0.010000
v 0.197269 0.176964 -0.010000
v 0.205263 0.165000 -0.010000
v 0.211627 0.152095 -0.010000
v 0.216252 0.138470 -0.010000
v 0.219059 0.124358 -0.010000
v -0.220000 0.110000 -0.010000
v -0.110000 0.220000 -0.010000
v -0.219059 0.124358 -0.010000
v -0.216252 0.138470 -0.010000
v -0.211627 0.152095 -0.010000
v -0.205263 0.165000 -0.010000
v -0.197269 0.176964 -0.010000
v -0.187782 0.187782 -0.010000
v -0.176964 0.197269 -0.010000
v -0.165000 0.205263 -0.010000
v -0.152095 0.211627 -0.010000
v -0.138470 0.216252 -0.010000
v -0.124358 0.219059 -0.010000
vn -0.9992 -0.0393 -0.0000
vn -0.9931 -0.1175 -0.0000
vn -0.9808 -0.1951 -0.0000
vn -0.9625 -0.2714 -0.0000
vn -0.9382 -0.3461 -0.0000
vn -0.9081 -0.4187 -0.0000
vn -0.8725 -0.4886 -0.0000
vn -0.8315 -0.5556 -0.0000
vn -0.7853 -0.6191 -0.0000
vn -0.7343 -0.6788 -0.0000
vn -0.6788 -0.7343 -0.0000
vn -0.6191 -0.7853 -0.0000
vn -0.5556 -0.8315 -0.0000
vn -0.4886 -0.8725 -0.0000
vn -0.4187 -0.9081 -0.0000
vn -0.3461 -0.9382 -0.0000
vn -0.2714 -0.9625 -0.0000
vn -0.1951 -0.9808 -0.0000
vn -0.1175 -0.9931 -0.0000
vn -0.0393 -0.9992 -0.0000
vn 0.9992 -0.0393 -0.0000
vn 0.9931 -0.1175 -0.0000
vn 0.9808 -0.1951 -0.0000
vn 0.9625 -0.2714 -0.0000
vn 0.9382 -0.3461 -0.0000
vn 0.9081 -0.4187 -0.0000
vn 0.8725 -0.4886 -0.0000
vn 0.8315 -0.5556 -0.0000
vn 0.7853 -0.6191 -0.0000
vn 0.7343 -0.6788 -0.0000
vn 0.6788 -0.7343 -0.0000
vn 0.6191 -0.7853 -0.0000
vn 0.5556 -0.8315 -0.0000
vn 0.4886 -0.8725 -0.0000
vn 0.4187 -0.9081 -0.0000
vn 0.3461 -0.9382 -0.0000
vn 0.2714 -0.9625 -0.0000
vn 0.1951 -0.9808 -0.0000
vn 0.1175 -0.9931 -0.0000
vn 0.0393 -0.9992 -0.0000
vn -0.0000 -0.0000 -1.0000
vn 0.9979 0.0654 -0.0000
vn 0.9808 0.1951 -0.0000
vn 0.9469 0.3214 -0.0000
vn 0.8969 0.4423 -0.0000
vn 0.8315 0.5556 -0.0000
vn 0.7518 0.6593 -0.0000
vn 0.6593 0.7518 -0.0000
vn 0.5556 0.8315 -0.0000
vn 0.4423 0.8969 -0.0000
vn 0.3214 0.9469 -0.0000
vn 0.1951 0.9808 -0.0000
vn 0.0654 0.9979 -0.0000
vn -0.9979 0.0654 -0.0000
vn -0.9808 0.1951 -0.0000
vn -0.9469 0.3214 -0.0000
vn -0.8969 0.4423 -0.0000
vn -0.8315 0.5556 -0.0000
vn -0.7518 0.6593 -0.0000
vn -0.6593 0.7518 -0.0000
vn -0.5556 0.8315 -0.0000
vn -0.4423 0.8969 -0.0000
vn -0.3214 0.9469 -0.0000
vn -0.1951 0.9808 -0.0000
vn -0.0654 0.9979 -0.0000
vn -0.0000 -0.0000 1.0000
vn -0.0000 1.0000 -0.0000
vn 1.0000 -0.0000 -0.0000
vn -1.0000 -0.0000 -0.0000
vt 0.500000 1.000000
vt 0.539230 0.998465
vt 0.578217 0.993869
vt 0.616723 0.986240
vt 0.654508 0.975626
vt 0.691342 0.962091
vt 0.726995 0.945720
vt 0.761249 0.926614
vt 0.761249 0.926614
vt 0.793893 0.904889
vt 0.793893 0.904889
vt 0.824724 0.880680
vt 0.854137 0.854137
vt 0.880680 0.824724
vt 0.904889 0.793893
vt 0.904889 0.793893
vt 0.926614 0.761249
vt 0.926614 0.761249
vt 0.945720 0.726995
vt 0.962091 0.691342
vt 0.975626 0.654508
vt 0.986240 0.616723
vt 0.993869 0.578217
vt 0.998465 0.539230
vt 1.000000 0.500000
vt 0.500000 0.000000
vt 0.539230 0.001535
vt 0.539230 0.001535
vt 0.578217 0.006131
vt 0.616723 0.013760
vt 0.616723 0.013760
vt 0.654509 0.024374
vt 0.654508 0.024374
vt 0.691342 0.037909
vt 0.726995 0.054280
vt 0.726995 0.054280
vt 0.761249 0.073386
vt 0.793893 0.095111
vt 0.793893 0.095111
vt 0.824724 0.119320
vt 0.824724 0.119320
vt 0.854137 0.145863
vt 0.880680 0.175276
vt 0.880680 0.175276
vt 0.904889 0.206107
vt 0.926614 0.238751
vt 0.945720 0.273005
vt 0.962091 0.308658
vt 0.975626 0.345491
vt 0.975626 0.345491
vt 0.986240 0.383277
vt 0.993869 0.421783
vt 0.998465 0.460770
vt 0.250000 0.000000
vt 0.217369 0.002131
vt 0.217369 0.002131
vt 0.185296 0.008489
vt 0.185296 0.008489
vt 0.154331 0.018965
vt 0.154331 0.018965
vt 0.125002 0.033379
vt 0.125002 0.033379
vt 0.097813 0.051484
vt 0.097813 0.051484
vt 0.072976 0.072972
vt 0.072976 0.072972
vt 0.051488 0.097809
vt 0.051488 0.097809
vt 0.033381 0.125000
vt 0.033381 0.125000
vt 0.018966 0.154329
vt 0.018966 0.154329
vt 0.008490 0.185295
vt 0.008490 0.185295
vt 0.002132 0.217368
vt 0.002132 0.217368
vt 0.000000 0.250000
vt 0.250000 1.000000
vt 0.250000 1.000000
vt 0.217369 0.997869
vt 0.217369 0.997868
vt 0.185296 0.991511
vt 0.185296 0.991511
vt 0.154331 0.981035
vt 0.154331 0.981035
vt 0.125002 0.966622
vt 0.125002 0.966621
vt 0.097813 0.948516
vt 0.097813 0.948516
vt 0.072976 0.927028
vt 0.072976 0.927028
vt 0.051488 0.902191
vt 0.051488 0.902191
vt 0.033381 0.875000
vt 0.033381 0.875000
vt 0.018966 0.845671
vt 0.018966 0.845671
vt 0.008490 0.814705
vt 0.008490 0.814705
vt 0.002132 0.782632
vt 0.000000 0.750000
s 0
f 22/1/1 65/1/1 84/2/1 24/2/1
f 24/2/2 84/2/2 83/3/2 25/3/2
f 25/3/3 83/3/3 82/4/3 26/4/3
f 26/4/4 82/4/4 81/5/4 27/5/4
f 27/5/5 81/5/5 80/6/5 28/6/5
f 28/6/6 80/6/6 79/7/6 29/7/6
f 29/7/7 79/7/7 78/8/7 30/9/7
f 30/9/8 78/8/8 77/10/8 31/11/8
f 31/11/9 77/10/9 76/12/9 32/12/9
f 32/12/10 76/12/10 75/13/10 33/13/10
f 33/13/11 75/13/11 74/14/11 34/14/11
f 34/14/12 74/14/12 73/15/12 35/16/12
f 35/16/13 73/15/13 72/17/13 36/18/13
f 36/18/14 72/17/14 71/19/14 37/19/14
f 37/19/15 71/19/15 70/20/15 38/20/15
f 38/20/16 70/20/16 69/21/16 39/21/16
f 39/21/17 69/21/17 68/22/17 40/22/17
f 40/22/18 68/22/18 67/23/18 41/23/18
f 41/23/19 67/23/19 66/24/19 42/24/19
f 42/24/20 66/24/20 64/25/20 23/25/20
f 43/26/21 2/26/21 21/27/21 45/28/21
f 45/28/22 21/27/22 20/29/22 46/29/22
f 46/29/23 20/29/23 19/30/23 47/31/23
f 47/31/24 19/30/24 18/32/24 48/33/24
f 48/33/25 18/32/25 17/34/25 49/34/25
f 49/34/26 17/34/26 16/35/26 50/36/26
f 50/36/27 16/35/27 15/37/27 51/37/27
f 51/37/28 15/37/28 14/38/28 52/39/28
f 52/39/29 14/38/29 13/40/29 53/41/29
f 53/41/30 13/40/30 12/42/30 54/42/30
f 54/42/31 12/42/31 11/43/31 55/44/31
f 55/44/32 11/43/32 10/45/32 56/45/32
f 56/45/33 10/45/33 9/46/33 57/46/33
f 57/46/34 9/46/34 8/47/34 58/47/34
f 58/47/35 8/47/35 7/48/35 59/48/35
f 59/48/36 7/48/36 6/49/36 60/50/36
f 60/50/37 6/49/37 5/51/37 61/51/37
f 61/51/38 5/51/38 4/52/38 62/52/38
f 62/52/39 4/52/39 3/53/39 63/53/39
f 63/53/40 3/53/40 1/25/40 44/25/40
f 1/25/41 23/25/41 64/25/41 44/25/41
f 85/54/42 112/54/42 123/55/42 87/56/42
f 87/56/43 123/55/43 122/57/43 88/58/43
f 88/58/44 122/57/44 121/59/44 89/60/44
f 89/60/45 121/59/45 120/61/45 90/62/45
f 90/62/46 120/61/46 119/63/46 91/64/46
f 91/64/47 119/63/47 118/65/47 92/66/47
f 92/66/48 118/65/48 117/67/48 93/68/48
f 93/68/49 117/67/49 116/69/49 94/70/49
f 94/70/50 116/69/50 115/71/50 95/72/50
f 95/72/51 115/71/51 114/73/51 96/74/51
f 96/74/52 114/73/52 113/75/52 97/76/52
f 97/76/53 113/75/53 111/77/53 86/77/53
f 124/78/54 99/79/54 110/80/54 126/81/54
f 126/81/55 110/80/55 109/82/55 127/83/55
f 127/83/56 109/82/56 108/84/56 128/85/56
f 128/85/57 108/84/57 107/86/57 129/87/57
f 129/87/58 107/86/58 106/88/58 130/89/58
f 130/89/59 106/88/59 105/90/59 131/91/59
f 131/91/60 105/90/60 104/92/60 132/93/60
f 132/93/61 104/92/61 103/94/61 133/95/61
f 133/95/62 103/94/62 102/96/62 134/97/62
f 134/97/63 102/96/63 101/98/63 135/99/63
f 135/99/64 101/98/64 100/100/64 136/100/64
f 136/100/65 100/100/65 98/101/65 125/101/65
f 85/54/66 87/56/66 88/58/66 89/60/66 90/62/66 91/64/66 92/66/66 93/68/66 94/70/66 95/72/66 96/74/66 97/76/66 86/77/66 98/101/66 100/100/66 101/98/66 102/96/66 103/94/66 104/92/66 105/90/66 106/88/66 107/86/66 108/84/66 109/82/66 110/80/66 99/79/66 22/1/66 24/2/66 25/3/66 26/4/66 27/5/66 28/6/66 29/7/66 30/9/66 31/11/66 32/12/66 33/13/66 34/14/66 35/16/66 36/18/66 37/19/66 38/20/66 39/21/66 40/22/66 41/23/66 42/24/66 23/25/66 1/25/66 3/53/66 4/52/66 5/51/66 6/49/66 7/48/66 8/47/66 9/46/66 10/45/66 11/43/66 12/42/66 13/40/66 14/38/66 15/37/66 16/35/66 17/34/66 18/32/66 19/30/66 20/29/66 21/27/66 2/26/66
f 98/101/67 86/77/67 111/77/67 125/101/67
f 85/54/68 2/26/68 43/26/68 112/54/68
f 22/1/69 99/79/69 124/78/69 65/1/69
f 111/77/41 113/75/41 114/73/41 115/71/41 116/69/41 117/67/41 118/65/41 119/63/41 120/61/41 121/59/41 122/57/41 123/55/41 112/54/41 43/26/41 45/28/41 46/29/41 47/31/41 48/33/41 49/34/41 50/36/41 51/37/41 52/39/41 53/41/41 54/42/41 55/44/41 56/45/41 57/46/41 58/47/41 59/48/41 60/50/41 61/51/41 62/52/41 63/53/41 44/25/41 64/25/41 66/24/41 67/23/41 68/22/41 69/21/41 70/20/41 71/19/41 72/17/41 73/15/41 74/14/41 75/13/41 76/12/41 77/10/41 78/8/41 79/7/41 80/6/41 81/5/41 82/4/41 83/3/41 84/2/41 65/1/41 124/78/41 126/81/41 127/83/41 128/85/41 129/87/41 130/89/41 131/91/41 132/93/41 133/95/41 134/97/41 135/99/41 136/100/41 125/101/41
