# Blender 4.5.0
# www.blender.org
mtllib Face_Corner.mtl
o Plane
v -0.109529 -0.220000 -0.010000
v -0.220000 -0.109529 -0.010000
v -0.118197 -0.219659 -0.010000
v -0.126811 -0.218640 -0.010000
v -0.135318 -0.216948 -0.010000
v -0.143667 -0.214593 -0.010000
v -0.151805 -0.211591 -0.010000
v -0.159682 -0.207959 -0.010000
v -0.167250 -0.203721 -0.010000
v -0.174462 -0.198902 -0.010000
v -0.181274 -0.193532 -0.010000
v -0.187644 -0.187644 -0.010000
v -0.193532 -0.181274 -0.010000
v -0.198902 -0.174462 -0.010000
v -0.203721 -0.167250 -0.010000
v -0.207959 -0.159682 -0.010000
v -0.211591 -0.151805 -0.010000
v -0.214593 -0.143667 -0.010000
v -0.216948 -0.135318 -0.010000
v -0.218640 -0.126811 -0.010000
v -0.219659 -0.118197 -0.010000
v 0.220000 -0.109529 -0.010000
v 0.109529 -0.220000 -0.010000
v 0.219659 -0.118197 -0.010000
v 0.218640 -0.126811 -0.010000
v 0.216948 -0.135318 -0.010000
v 0.214593 -0.143667 -0.010000
v 0.211591 -0.151805 -0.010000
v 0.207959 -0.159682 -0.010000
v 0.203721 -0.167250 -0.010000
v 0.198902 -0.174462 -0.010000
v 0.193532 -0.181274 -0.010000
v 0.187644 -0.187644 -0.010000
v 0.181274 -0.193532 -0.010000
v 0.174462 -0.198902 -0.010000
v 0.167250 -0.203721 -0.010000
v 0.159682 -0.207959 -0.010000
v 0.151805 -0.211591 -0.010000
v 0.143667 -0.214593 -0.010000
v 0.135318 -0.216948 -0.010000
v 0.126811 -0.218640 -0.010000
v 0.118197 -0.219659 -0.010000
v -0.220000 0.109529 -0.010000
v -0.109529 0.220000 -0.010000
v -0.219659 0.118197 -0.010000
v -0.218640 0.126811 -0.010000
v -0.216948 0.135318 -0.010000
v -0.214593 0.143667 -0.010000
v -0.211591 0.151805 -0.010000
v -0.207959 0.159682 -0.010000
v -0.203721 0.167250 -0.010000
v -0.198902 0.174462 -0.010000
v -0.193532 0.181274 -0.010000
v -0.187644 0.187644 -0.010000
v -0.181274 0.193532 -0.010000
v -0.174462 0.198902 -0.010000
v -0.167250 0.203721 -0.010000
v -0.159682 0.207959 -0.010000
v -0.151805 0.211591 -0.010000
v -0.143667 0.214593 -0.010000
v -0.135318 0.216948 -0.010000
v -0.126811 0.218640 -0.010000
v -0.118197 0.219659 -0.010000
v 0.109529 0.220000 -0.010000
v 0.220000 0.109529 -0.010000
v 0.118197 0.219659 -0.010000
v 0.126811 0.218640 -0.010000
v 0.135318 0.216948 -0.010000
v 0.143667 0.214593 -0.010000
v 0.151805 0.211591 -0.010000
v 0.159682 0.207959 -0.010000
v 0.167250 0.203721 -0.010000
v 0.174462 0.198902 -0.010000
v 0.181274 0.193532 -0.010000
v 0.187644 0.187644 -0.010000
v 0.193532 0.181274 -0.010000
v 0.198902 0.174462 -0.010000
v 0.203721 0.167250 -0.010000
v 0.207959 0.159682 -0.010000
v 0.211591 0.151805 -0.010000
v 0.214593 0.143667 -0.010000
v 0.216948 0.135318 -0.010000
v 0.218640 0.126811 -0.010000
v 0.219659 0.118197 -0.010000
v -0.220000 -0.109529 0.010000
v -0.109529 -0.220000 0.010000
v -0.219659 -0.118197 0.010000
v -0.218640 -0.126811 0.010000
v -0.216948 -0.135318 0.010000
v -0.214593 -0.143667 0.010000
v -0.211591 -0.151805 0.010000
v -0.207959 -0.159682 0.010000
v -0.203721 -0.167250 0.010000
v -0.198902 -0.174462 0.010000
v -0.193532 -0.181274 0.010000
v -0.187644 -0.187644 0.010000
v -0.181274 -0.193532 0.010000
v -0.174462 -0.198902 0.010000
v -0.167250 -0.203721 0.010000
v -0.159682 -0.207959 0.010000
v -0.151805 -0.211591 0.010000
v -0.143667 -0.214593 0.010000
v -0.135318 -0.216948 0.010000
v -0.126811 -0.218640 0.010000
v -0.118197 -0.219659 0.010000
v 0.109529 -0.220000 0.010000
v 0.220000 -0.109529 0.010000
v 0.118197 -0.219659 0.010000
v 0.126811 -0.218640 0.010000
v 0.135318 -0.216948 0.010000
v 0.143667 -0.214593 0.010000
v 0.151805 -0.211591 0.010000
v 0.159682 -0.207959 0.010000
v 0.167250 -0.203721 0.010000
v 0.174462 -0.198902 0.010000
v 0.181274 -0.193532 0.010000
v 0.187644 -0.187644 0.010000
v 0.193532 -0.181274 0.010000
v 0.198902 -0.174462 0.010000
v 0.203721 -0.167250 0.010000
v 0.207959 -0.159682 0.010000
v 0.211591 -0.151805 0.010000
v 0.214593 -0.143667 0.010000
v 0.216948 -0.135318 0.010000
v 0.218640 -0.126811 0.010000
v 0.219659 -0.118197 0.010000
v -0.109529 0.220000 0.010000
v -0.220000 0.109529 0.010000
v -0.118197 0.219659 0.010000
v -0.126811 0.218640 0.010000
v -0.135318 0.216948 0.010000
v -0.143667 0.214593 0.010000
v -0.151805 0.211591 0.010000
v -0.159682 0.207959 0.010000
v -0.167250 0.203721 0.010000
v -0.174462 0.198902 0.010000
v -0.181274 0.193532 0.010000
v -0.187644 0.187644 0.010000
v -0.193532 0.181274 0.010000
v -0.198902 0.174462 0.010000
v -0.203721 0.167250 0.010000
v -0.207959 0.159682 0.010000
v -0.211591 0.151805 0.010000
v -0.214593 0.143667 0.010000
v -0.216948 0.135318 0.010000
v -0.218640 0.126811 0.010000
v -0.219659 0.118197 0.010000
v 0.220000 0.109529 0.010000
v 0.109529 0.220000 0.010000
v 0.219659 0.118197 0.010000
v 0.218640 0.126811 0.010000
v 0.216948 0.135318 0.010000
v 0.214593 0.143667 0.010000
v 0.211591 0.151805 0.010000
v 0.207959 0.159682 0.010000
v 0.203721 0.167250 0.010000
v 0.198902 0.174462 0.010000
v 0.193532 0.181274 0.010000
v 0.187644 0.187644 0.010000
v 0.181274 0.193532 0.010000
v 0.174462 0.198902 0.010000
v 0.167250 0.203721 0.010000
v 0.159682 0.207959 0.010000
v 0.151805 0.211591 0.010000
v 0.143667 0.214593 0.010000
v 0.135318 0.216948 0.010000
v 0.126811 0.218640 0.010000
v 0.118197 0.219659 0.010000
vn -0.9992 0.0393 -0.0000
vn -0.9931 0.1175 -0.0000
vn -0.9808 0.1951 -0.0000
vn -0.9625 0.2714 -0.0000
vn -0.9382 0.3461 -0.0000
vn -0.9081 0.4187 -0.0000
vn -0.8725 0.4886 -0.0000
vn -0.8315 0.5556 -0.0000
vn -0.7853 0.6191 -0.0000
vn -0.7343 0.6788 -0.0000
vn -0.6788 0.7343 -0.0000
vn -0.6191 0.7853 -0.0000
vn -0.5556 0.8315 -0.0000
vn -0.4886 0.8725 -0.0000
vn -0.4187 0.9081 -0.0000
vn -0.3461 0.9382 -0.0000
vn -0.2714 0.9625 -0.0000
vn -0.1951 0.9808 -0.0000
vn -0.1175 0.9931 -0.0000
vn -0.0393 0.9992 -0.0000
vn 0.9992 0.0393 -0.0000
vn 0.9931 0.1175 -0.0000
vn 0.9808 0.1951 -0.0000
vn 0.9625 0.2714 -0.0000
vn 0.9382 0.3461 -0.0000
vn 0.9081 0.4187 -0.0000
vn 0.8725 0.4886 -0.0000
vn 0.8315 0.5556 -0.0000
vn 0.7853 0.6191 -0.0000
vn 0.7343 0.6788 -0.0000
vn 0.6788 0.7343 -0.0000
vn 0.6191 0.7853 -0.0000
vn 0.5556 0.8315 -0.0000
vn 0.4886 0.8725 -0.0000
vn 0.4187 0.9081 -0.0000
vn 0.3461 0.9382 -0.0000
vn 0.2714 0.9625 -0.0000
vn 0.1951 0.9808 -0.0000
vn 0.1175 0.9931 -0.0000
vn 0.0393 0.9992 -0.0000
vn 0.9992 -0.0393 -0.0000
vn 0.9931 -0.1175 -0.0000
vn 0.9808 -0.1951 -0.0000
vn 0.9625 -0.2714 -0.0000
vn 0.9382 -0.3461 -0.0000
vn 0.9081 -0.4187 -0.0000
vn 0.8725 -0.4886 -0.0000
vn 0.8315 -0.5556 -0.0000
vn 0.7853 -0.6191 -0.0000
vn 0.7343 -0.6788 -0.0000
vn 0.6788 -0.7343 -0.0000
vn 0.6191 -0.7853 -0.0000
vn 0.5556 -0.8315 -0.0000
vn 0.4886 -0.8725 -0.0000
vn 0.4187 -0.9081 -0.0000
vn 0.3461 -0.9382 -0.0000
vn 0.2714 -0.9625 -0.0000
vn 0.1951 -0.9808 -0.0000
vn 0.1175 -0.9931 -0.0000
vn 0.0393 -0.9992 -0.0000
vn -0.9992 -0.0393 -0.0000
vn -0.9931 -0.1175 -0.0000
vn -0.9808 -0.1951 -0.0000
vn -0.9625 -0.2714 -0.0000
vn -0.9382 -0.3461 -0.0000
vn -0.9081 -0.4187 -0.0000
vn -0.8725 -0.4886 -0.0000
vn -0.8315 -0.5556 -0.0000
vn -0.7853 -0.6191 -0.0000
vn -0.7343 -0.6788 -0.0000
vn -0.6788 -0.7343 -0.0000
vn -0.6191 -0.7853 -0.0000
vn -0.5556 -0.8315 -0.0000
vn -0.4886 -0.8725 -0.0000
vn -0.4187 -0.9081 -0.0000
vn -0.3461 -0.9382 -0.0000
vn -0.2714 -0.9625 -0.0000
vn -0.1951 -0.9808 -0.0000
vn -0.1175 -0.9931 -0.0000
vn -0.0393 -0.9992 -0.0000
vn -1.0000 -0.0000 -0.0000
vn -0.0000 -0.0000 -1.0000
vn -0.0000 -1.0000 -0.0000
vn 1.0000 -0.0000 -0.0000
vn -0.0000 1.0000 -0.0000
vn -0.0000 -0.0000 1.0000
vt 0.000000 0.748930
vt 0.000773 0.768629
vt 0.000773 0.768629
vt 0.003085 0.788206
vt 0.003085 0.788206
vt 0.006924 0.807541
vt 0.012265 0.826515
vt 0.012265 0.826515
vt 0.019075 0.845011
vt 0.027313 0.862913
vt 0.027313 0.862914
vt 0.036928 0.880114
vt 0.047859 0.896505
vt 0.047859 0.896505
vt 0.060041 0.911987
vt 0.073398 0.926602
vt 0.088013 0.939959
vt 0.088013 0.939959
vt 0.103495 0.952141
vt 0.119886 0.963072
vt 0.137086 0.972687
vt 0.154990 0.980925
vt 0.173485 0.987735
vt 0.173485 0.987735
vt 0.192459 0.993076
vt 0.192459 0.993076
vt 0.211794 0.996915
vt 0.211794 0.996915
vt 0.231371 0.999228
vt 0.251070 1.000000
vt 0.251070 1.000000
vt 1.000000 0.748930
vt 0.999228 0.768629
vt 0.996915 0.788206
vt 0.996915 0.788206
vt 0.993076 0.807541
vt 0.987735 0.826515
vt 0.980925 0.845011
vt 0.972687 0.862914
vt 0.963072 0.880114
vt 0.963072 0.880114
vt 0.952141 0.896505
vt 0.939959 0.911987
vt 0.926602 0.926602
vt 0.911987 0.939959
vt 0.896505 0.952141
vt 0.880114 0.963072
vt 0.862914 0.972687
vt 0.845011 0.980925
vt 0.826515 0.987735
vt 0.826515 0.987735
vt 0.807541 0.993076
vt 0.788206 0.996915
vt 0.788206 0.996915
vt 0.768629 0.999228
vt 0.748930 1.000000
vt 1.000000 0.251070
vt 1.000000 0.251070
vt 0.999228 0.231371
vt 0.996915 0.211794
vt 0.996915 0.211794
vt 0.993076 0.192459
vt 0.993076 0.192459
vt 0.987735 0.173485
vt 0.987735 0.173485
vt 0.980925 0.154990
vt 0.972687 0.137086
vt 0.963072 0.119886
vt 0.952141 0.103495
vt 0.939959 0.088013
vt 0.939959 0.088013
vt 0.926602 0.073398
vt 0.911987 0.060041
vt 0.896505 0.047859
vt 0.896505 0.047859
vt 0.880114 0.036928
vt 0.862914 0.027313
vt 0.862913 0.027313
vt 0.845011 0.019075
vt 0.826515 0.012265
vt 0.826515 0.012265
vt 0.807541 0.006924
vt 0.788206 0.003085
vt 0.788206 0.003085
vt 0.768629 0.000773
vt 0.768629 0.000773
vt 0.748930 0.000000
vt 0.000000 0.251070
vt 0.000773 0.231371
vt 0.000773 0.231371
vt 0.003085 0.211794
vt 0.006924 0.192459
vt 0.012265 0.173485
vt 0.012265 0.173485
vt 0.019075 0.154990
vt 0.027313 0.137086
vt 0.036928 0.119886
vt 0.047859 0.103495
vt 0.060041 0.088013
vt 0.073398 0.073398
vt 0.088013 0.060041
vt 0.103495 0.047859
vt 0.119886 0.036928
vt 0.137086 0.027313
vt 0.154990 0.019075
vt 0.173485 0.012265
vt 0.173485 0.012265
vt 0.192459 0.006924
vt 0.211794 0.003085
vt 0.231371 0.000773
vt 0.231371 0.000773
vt 0.251070 0.000000
s 0
f 43/1/1 128/1/1 147/2/1 45/3/1
f 45/3/2 147/2/2 146/4/2 46/5/2
f 46/5/3 146/4/3 145/6/3 47/6/3
f 47/6/4 145/6/4 144/7/4 48/8/4
f 48/8/5 144/7/5 143/9/5 49/9/5
f 49/9/6 143/9/6 142/10/6 50/11/6
f 50/11/7 142/10/7 141/12/7 51/12/7
f 51/12/8 141/12/8 140/13/8 52/14/8
f 52/14/9 140/13/9 139/15/9 53/15/9
f 53/15/10 139/15/10 138/16/10 54/16/10
f 54/16/11 138/16/11 137/17/11 55/18/11
f 55/18/12 137/17/12 136/19/12 56/19/12
f 56/19/13 136/19/13 135/20/13 57/20/13
f 57/20/14 135/20/14 134/21/14 58/21/14
f 58/21/15 134/21/15 133/22/15 59/22/15
f 59/22/16 133/22/16 132/23/16 60/24/16
f 60/24/17 132/23/17 131/25/17 61/26/17
f 61/26/18 131/25/18 130/27/18 62/28/18
f 62/28/19 130/27/19 129/29/19 63/29/19
f 63/29/20 129/29/20 127/30/20 44/31/20
f 148/32/21 65/32/21 84/33/21 150/33/21
f 150/33/22 84/33/22 83/34/22 151/35/22
f 151/35/23 83/34/23 82/36/23 152/36/23
f 152/36/24 82/36/24 81/37/24 153/37/24
f 153/37/25 81/37/25 80/38/25 154/38/25
f 154/38/26 80/38/26 79/39/26 155/39/26
f 155/39/27 79/39/27 78/40/27 156/41/27
f 156/41/28 78/40/28 77/42/28 157/42/28
f 157/42/29 77/42/29 76/43/29 158/43/29
f 158/43/30 76/43/30 75/44/30 159/44/30
f 159/44/31 75/44/31 74/45/31 160/45/31
f 160/45/32 74/45/32 73/46/32 161/46/32
f 161/46/33 73/46/33 72/47/33 162/47/33
f 162/47/34 72/47/34 71/48/34 163/48/34
f 163/48/35 71/48/35 70/49/35 164/49/35
f 164/49/36 70/49/36 69/50/36 165/51/36
f 165/51/37 69/50/37 68/52/37 166/52/37
f 166/52/38 68/52/38 67/53/38 167/54/38
f 167/54/39 67/53/39 66/55/39 168/55/39
f 168/55/40 66/55/40 64/56/40 149/56/40
f 22/57/41 107/58/41 126/59/41 24/59/41
f 24/59/42 126/59/42 125/60/42 25/61/42
f 25/61/43 125/60/43 124/62/43 26/63/43
f 26/63/44 124/62/44 123/64/44 27/65/44
f 27/65/45 123/64/45 122/66/45 28/66/45
f 28/66/46 122/66/46 121/67/46 29/67/46
f 29/67/47 121/67/47 120/68/47 30/68/47
f 30/68/48 120/68/48 119/69/48 31/69/48
f 31/69/49 119/69/49 118/70/49 32/71/49
f 32/71/50 118/70/50 117/72/50 33/72/50
f 33/72/51 117/72/51 116/73/51 34/73/51
f 34/73/52 116/73/52 115/74/52 35/75/52
f 35/75/53 115/74/53 114/76/53 36/76/53
f 36/76/54 114/76/54 113/77/54 37/78/54
f 37/78/55 113/77/55 112/79/55 38/79/55
f 38/79/56 112/79/56 111/80/56 39/81/56
f 39/81/57 111/80/57 110/82/57 40/82/57
f 40/82/58 110/82/58 109/83/58 41/84/58
f 41/84/59 109/83/59 108/85/59 42/86/59
f 42/86/60 108/85/60 106/87/60 23/87/60
f 85/88/61 2/88/61 21/89/61 87/90/61
f 87/90/62 21/89/62 20/91/62 88/91/62
f 88/91/63 20/91/63 19/92/63 89/92/63
f 89/92/64 19/92/64 18/93/64 90/94/64
f 90/94/65 18/93/65 17/95/65 91/95/65
f 91/95/66 17/95/66 16/96/66 92/96/66
f 92/96/67 16/96/67 15/97/67 93/97/67
f 93/97/68 15/97/68 14/98/68 94/98/68
f 94/98/69 14/98/69 13/99/69 95/99/69
f 95/99/70 13/99/70 12/100/70 96/100/70
f 96/100/71 12/100/71 11/101/71 97/101/71
f 97/101/72 11/101/72 10/102/72 98/102/72
f 98/102/73 10/102/73 9/103/73 99/103/73
f 99/103/74 9/103/74 8/104/74 100/104/74
f 100/104/75 8/104/75 7/105/75 101/105/75
f 101/105/76 7/105/76 6/106/76 102/107/76
f 102/107/77 6/106/77 5/108/77 103/108/77
f 103/108/78 5/108/78 4/109/78 104/109/78
f 104/109/79 4/109/79 3/110/79 105/111/79
f 105/111/80 3/110/80 1/112/80 86/112/80
f 43/1/81 2/88/81 85/88/81 128/1/81
f 1/112/82 3/110/82 4/109/82 5/108/82 6/106/82 7/105/82 8/104/82 9/103/82 10/102/82 11/101/82 12/100/82 13/99/82 14/98/82 15/97/82 16/96/82 17/95/82 18/93/82 19/92/82 20/91/82 21/89/82 2/88/82 43/1/82 45/3/82 46/5/82 47/6/82 48/8/82 49/9/82 50/11/82 51/12/82 52/14/82 53/15/82 54/16/82 55/18/82 56/19/82 57/20/82 58/21/82 59/22/82 60/24/82 61/26/82 62/28/82 63/29/82 44/31/82 64/56/82 66/55/82 67/53/82 68/52/82 69/50/82 70/49/82 71/48/82 72/47/82 73/46/82 74/45/82 75/44/82 76/43/82 77/42/82 78/40/82 79/39/82 80/38/82 81/37/82 82/36/82 83/34/82 84/33/82 65/32/82 22/57/82 24/59/82 25/61/82 26/63/82 27/65/82 28/66/82 29/67/82 30/68/82 31/69/82 32/71/82 33/72/82 34/73/82 35/75/82 36/76/82 37/78/82 38/79/82 39/81/82 40/82/82 41/84/82 42/86/82 23/87/82
f 1/112/83 23/87/83 106/87/83 86/112/83
f 22/57/84 65/32/84 148/32/84 107/58/84
f 64/56/85 44/31/85 127/30/85 149/56/85
f 85/88/86 87/90/86 88/91/86 89/92/86 90/94/86 91/95/86 92/96/86 93/97/86 94/98/86 95/99/86 96/100/86 97/101/86 98/102/86 99/103/86 100/104/86 101/105/86 102/107/86 103/108/86 104/109/86 105/111/86 86/112/86 106/87/86 108/85/86 109/83/86 110/82/86 111/80/86 112/79/86 113/77/86 114/76/86 115/74/86 116/73/86 117/72/86 118/70/86 119/69/86 120/68/86 121/67/86 122/66/86 123/64/86 124/62/86 125/60/86 126/59/86 107/58/86 148/32/86 150/33/86 151/35/86 152/36/86 153/37/86 154/38/86 155/39/86 156/41/86 157/42/86 158/43/86 159/44/86 160/45/86 161/46/86 162/47/86 163/48/86 164/49/86 165/51/86 166/52/86 167/54/86 168/55/86 149/56/86 127/30/86 129/29/86 130/27/86 131/25/86 132/23/86 133/22/86 134/21/86 135/20/86 136/19/86 137/17/86 138/16/86 139/15/86 140/13/86 141/12/86 142/10/86 143/9/86 144/7/86 145/6/86 146/4/86 147/2/86 128/1/86
